<svg width="42" height="25" viewBox="0 0 42 25" fill="none" xmlns="http://www.w3.org/2000/svg">
<path d="M1.94044 7.68955C1.24126 9.75716 1.22184 10.487 1.29953 10.5935C1.33837 10.7484 1.43354 11.1336 1.50345 11.4356C1.57337 11.7377 2.30945 12.4714 2.66874 12.8005C3.13486 13.4742 4.04767 13.933 4.44581 14.0782C5.14499 14.2176 5.18383 13.3619 5.11585 12.9167C5.23238 12.15 4.98961 10.6613 4.85366 10.0127C4.41085 8.92083 4.18362 5.78263 4.12536 4.35001C4.03213 3.51367 4.41668 2.25917 4.6206 1.73646C4.85366 1.01628 5.49457 0.294162 5.78589 0.0231267C6.01895 -0.0697997 6.17432 0.139285 6.22288 0.255443L6.01895 0.574877C5.48292 1.31829 5.29065 3.80794 5.26151 4.95984L5.78589 7.68955L6.6016 12.3068C6.67151 13.2593 7.2328 13.9814 7.5047 14.2234L9.80615 15.1527C10.3189 14.9436 10.6218 13.8072 10.7092 13.2651L11.4958 7.92187L11.9911 4.95984L12.428 3.50787L12.8359 2.63668C13.1622 2.3579 13.2632 2.75284 13.2729 2.98515L12.9816 4.35001L12.428 8.6769L12.2824 12.9167C12.1892 13.5439 12.4183 15.4625 12.5446 16.3433L12.9524 16.6628C13.4419 16.686 15.0791 19.3441 15.8365 20.6702C15.8598 20.949 16.0793 21.0187 16.1861 21.0187L16.827 18.4922C16.827 18.0973 17.1183 18.1535 17.264 18.2309C17.4971 18.3703 17.4971 19.2957 17.4679 19.7409L16.827 23.0514L16.9727 24.8809C16.3434 25.1597 15.2539 24.7648 14.7878 24.5325C14.9509 22.6507 14.0206 21.3091 13.5351 20.8735C11.1113 17.5281 6.11606 15.84 3.92143 15.4141C2.1968 14.6706 0.697461 12.5875 0.16337 11.6389C-0.39597 10.2915 0.610064 8.44458 1.183 7.68955C1.43936 7.36431 1.79478 7.55404 1.94044 7.68955Z" fill="url(#paint0_linear_1_2613)"/>
<path d="M40.0586 7.71271C40.7578 9.78032 40.7772 10.5102 40.6995 10.6167C40.6607 10.7715 40.5655 11.1568 40.4956 11.4588C40.4257 11.7608 39.6896 12.4945 39.3303 12.8237C38.8642 13.4974 37.9514 13.9562 37.5532 14.1014C36.854 14.2408 36.8152 13.3851 36.8832 12.9398C36.7666 12.1732 37.0094 10.6844 37.1454 10.0359C37.5882 8.94398 37.8154 5.80578 37.8737 4.37317C37.9669 3.53683 37.5823 2.28232 37.3784 1.75961C37.1454 1.03943 36.5045 0.317317 36.2131 0.0462819C35.9801 -0.0466445 35.8247 0.16244 35.7761 0.278598L35.9801 0.598032C36.5161 1.34144 36.7084 3.8311 36.7375 4.983L36.2131 7.71271L35.3974 12.33C35.3275 13.2825 34.7662 14.0046 34.4943 14.2466L32.1929 15.1759C31.6802 14.9668 31.3772 13.8304 31.2898 13.2883L30.5032 7.94502L30.008 4.983L29.571 3.53102L29.1631 2.65984C28.8368 2.38106 28.7359 2.77599 28.7261 3.00831L29.0175 4.37317L29.571 8.70005L29.7166 12.9398C29.8099 13.5671 29.5807 15.4856 29.4544 16.3665L29.0466 16.6859C28.5572 16.7091 26.9199 19.3672 26.1625 20.6934C26.1392 20.9721 25.9197 21.0418 25.8129 21.0418L25.172 18.5154C25.172 18.1205 24.8807 18.1766 24.735 18.254C24.502 18.3934 24.502 19.3188 24.5311 19.7641L25.172 23.0746L25.0263 24.9041C25.6556 25.1829 26.7451 24.7879 27.2113 24.5556C27.0481 22.6739 27.9784 21.3322 28.4639 20.8966C30.8878 17.5513 35.883 15.8631 38.0776 15.4372C39.8022 14.6938 41.3016 12.6107 41.8357 11.6621C42.395 10.3146 41.389 8.46773 40.816 7.71271C40.5597 7.38747 40.2042 7.57719 40.0586 7.71271Z" fill="url(#paint1_linear_1_2613)"/>
<defs>
<linearGradient id="paint0_linear_1_2613" x1="8.74034" y1="-3.05176e-05" x2="8.74034" y2="33.0576" gradientUnits="userSpaceOnUse">
<stop stop-color="#00AAFF"/>
<stop offset="1" stop-color="#00AAFF" stop-opacity="0"/>
</linearGradient>
<linearGradient id="paint1_linear_1_2613" x1="33.2587" y1="0.0231247" x2="33.2587" y2="33.0807" gradientUnits="userSpaceOnUse">
<stop stop-color="#00AAFF"/>
<stop offset="1" stop-color="#00AAFF" stop-opacity="0"/>
</linearGradient>
</defs>
</svg>
